<?xml version="1.0" encoding="UTF-8"?>
<svg width="65px" height="102px" viewBox="0 0 65 102" version="1.1" xmlns="http://www.w3.org/2000/svg" xmlns:xlink="http://www.w3.org/1999/xlink">
    <!-- Generator: Sketch 54.1 (76490) - https://sketchapp.com -->
    <title>Group 4 Copy</title>
    <desc>Created with Sketch.</desc>
    <g id="Page-1" stroke="none" stroke-width="1" fill="none" fill-rule="evenodd">
        <g id="Group-4-Copy" fill="#FFE100" fill-rule="nonzero">
            <path d="M62.9,50.425 C63.5500033,50.425 64.0624981,50.7374969 64.4375,51.3625 C64.8125019,51.9875031 65,52.7749952 65,53.725 C65,54.8750057 64.8250018,55.7749967 64.475,56.425 C64.1249983,57.0750032 63.5750038,57.6499975 62.825,58.15 C59.8749853,60.1000097 55.1750323,63.2999777 48.725,67.75 C46.7749903,78.1000517 44.2500155,86.2499702 41.15,92.2 C38.0499845,98.1500297 34.1250238,101.125 29.375,101.125 C26.8249873,101.125 24.750008,100.337508 23.15,98.7625 C21.549992,97.1874921 20.75,95.1250127 20.75,92.575 C20.75,90.2249882 21.2749948,87.850012 22.325,85.45 C23.3750053,83.049988 25.3374856,80.2750157 28.2125,77.125 C31.0875144,73.9749842 35.1499738,70.3750202 40.4,66.325 L40.625,64.9 C36.6749803,66.5500082 32.800019,67.375 29,67.375 C23.399972,67.375 18.4750213,66.2875109 14.225,64.1125 C9.97497875,61.9374891 6.67501175,58.85002 4.325,54.85 C1.97498825,50.84998 0.8,46.2000265 0.8,40.9 C0.8,33.499963 2.199986,26.9625284 5,21.2875 C7.800014,15.6124716 11.6624754,11.2125156 16.5875,8.0875 C21.5125246,4.96248437 27.0249695,3.4 33.125,3.4 C38.9750293,3.4 43.3624854,4.76248637 46.2875,7.4875 C49.2125146,10.2125136 50.675,13.8249775 50.675,18.325 C50.675,21.2750147 50.1375054,23.6374911 49.0625,25.4125 C47.9874946,27.1875089 46.45001,28.075 44.45,28.075 C43.0999933,28.075 42.0125041,27.7500032 41.1875,27.1 C40.3624959,26.4499967 39.95,25.5500057 39.95,24.4 C39.95,23.8999975 40.049999,23.050006 40.25,21.85 C40.5500015,20.449993 40.7,19.350004 40.7,18.55 C40.7,16.4499895 40.0625064,14.8250057 38.7875,13.675 C37.5124936,12.5249942 35.375015,11.95 32.375,11.95 C28.7249818,11.95 25.3375156,12.9999895 22.2125,15.1 C19.0874844,17.2000105 16.5750095,20.3374791 14.675,24.5125 C12.7749905,28.6875209 11.825,33.6999707 11.825,39.55 C11.825,45.55003 13.4624836,50.1874836 16.7375,53.4625 C20.0125164,56.7375164 24.749969,58.375 30.95,58.375 C34.4000173,58.375 37.9999813,57.6000077 41.75,56.05 L42.8,46.9 L35.15,46.9 C33.749993,46.9 32.6750038,46.5625034 31.925,45.8875 C31.1749963,45.2124966 30.8,44.1000077 30.8,42.55 C30.8,41.149993 31.1749963,40.050004 31.925,39.25 C32.6750038,38.449996 33.6749938,38.05 34.925,38.05 L48.95,38.05 C50.0500055,38.05 50.9624964,38.4124964 51.6875,39.1375 C52.4125036,39.8625036 52.7000008,40.8999932 52.55,42.25 C52.3999993,43.850008 51.9000043,47.4749717 51.05,53.125 L50.225,58.825 C54.22502,55.824985 57.8749835,53.225011 61.175,51.025 C61.8250033,50.624998 62.3999975,50.425 62.9,50.425 Z M30.2,93.85 C31.5000065,93.85 32.9249923,92.3750147 34.475,89.425 C36.0250078,86.4749852 37.4749933,81.7250327 38.825,75.175 C35.024981,78.4250162 32.2875084,81.3624869 30.6125,83.9875 C28.9374916,86.6125131 28.1,88.92499 28.1,90.925 C28.1,92.8750097 28.799993,93.85 30.2,93.85 Z" id="G"></path>
            <path d="M62.9,47.425 C63.5500033,47.425 64.0624981,47.7374969 64.4375,48.3625 C64.8125019,48.9875031 65,49.7749952 65,50.725 C65,51.8750057 64.8250018,52.7749967 64.475,53.425 C64.1249983,54.0750032 63.5750038,54.6499975 62.825,55.15 C59.8749853,57.1000097 55.1750323,60.2999777 48.725,64.75 C46.7749903,75.1000517 44.2500155,83.2499702 41.15,89.2 C38.0499845,95.1500297 34.1250238,98.125 29.375,98.125 C26.8249873,98.125 24.750008,97.3375079 23.15,95.7625 C21.549992,94.1874921 20.75,92.1250127 20.75,89.575 C20.75,87.2249882 21.2749948,84.850012 22.325,82.45 C23.3750053,80.049988 25.3374856,77.2750157 28.2125,74.125 C31.0875144,70.9749842 35.1499738,67.3750202 40.4,63.325 L40.625,61.9 C36.6749803,63.5500082 32.800019,64.375 29,64.375 C23.399972,64.375 18.4750213,63.2875109 14.225,61.1125 C9.97497875,58.9374891 6.67501175,55.85002 4.325,51.85 C1.97498825,47.84998 0.8,43.2000265 0.8,37.9 C0.8,30.499963 2.199986,23.9625284 5,18.2875 C7.800014,12.6124716 11.6624754,8.21251562 16.5875,5.0875 C21.5125246,1.96248437 27.0249695,0.4 33.125,0.4 C38.9750293,0.4 43.3624854,1.76248637 46.2875,4.4875 C49.2125146,7.21251362 50.675,10.8249775 50.675,15.325 C50.675,18.2750147 50.1375054,20.6374911 49.0625,22.4125 C47.9874946,24.1875089 46.45001,25.075 44.45,25.075 C43.0999933,25.075 42.0125041,24.7500032 41.1875,24.1 C40.3624959,23.4499967 39.95,22.5500057 39.95,21.4 C39.95,20.8999975 40.049999,20.050006 40.25,18.85 C40.5500015,17.449993 40.7,16.350004 40.7,15.55 C40.7,13.4499895 40.0625064,11.8250057 38.7875,10.675 C37.5124936,9.52499425 35.375015,8.95 32.375,8.95 C28.7249818,8.95 25.3375156,9.9999895 22.2125,12.1 C19.0874844,14.2000105 16.5750095,17.3374791 14.675,21.5125 C12.7749905,25.6875209 11.825,30.6999707 11.825,36.55 C11.825,42.55003 13.4624836,47.1874836 16.7375,50.4625 C20.0125164,53.7375164 24.749969,55.375 30.95,55.375 C34.4000173,55.375 37.9999813,54.6000077 41.75,53.05 L42.8,43.9 L35.15,43.9 C33.749993,43.9 32.6750038,43.5625034 31.925,42.8875 C31.1749963,42.2124966 30.8,41.1000077 30.8,39.55 C30.8,38.149993 31.1749963,37.050004 31.925,36.25 C32.6750038,35.449996 33.6749938,35.05 34.925,35.05 L48.95,35.05 C50.0500055,35.05 50.9624964,35.4124964 51.6875,36.1375 C52.4125036,36.8625036 52.7000008,37.8999932 52.55,39.25 C52.3999993,40.850008 51.9000043,44.4749717 51.05,50.125 L50.225,55.825 C54.22502,52.824985 57.8749835,50.225011 61.175,48.025 C61.8250033,47.624998 62.3999975,47.425 62.9,47.425 Z M30.2,90.85 C31.5000065,90.85 32.9249923,89.3750147 34.475,86.425 C36.0250078,83.4749852 37.4749933,78.7250327 38.825,72.175 C35.024981,75.4250162 32.2875084,78.3624869 30.6125,80.9875 C28.9374916,83.6125131 28.1,85.92499 28.1,87.925 C28.1,89.8750097 28.799993,90.85 30.2,90.85 Z" id="G"></path>
        </g>
    </g>
</svg>