<?xml version="1.0" encoding="UTF-8"?>
<svg width="202px" height="205px" viewBox="0 0 202 205" version="1.1" xmlns="http://www.w3.org/2000/svg" xmlns:xlink="http://www.w3.org/1999/xlink">
    <!-- Generator: Sketch 54.1 (76490) - https://sketchapp.com -->
    <title>Group 5</title>
    <desc>Created with Sketch.</desc>
    <g id="Page-1" stroke="none" stroke-width="1" fill="none" fill-rule="evenodd">
        <g id="Group-5" transform="translate(1.000000, 1.000000)">
            <path d="M25,103.375587 C25,81.1741196 32.1130736,62.2280388 46.3394343,46.5367762 C60.5657949,30.8455136 78.4940682,23 100.124792,23 C121.755516,23 139.642192,30.8455136 153.785358,46.5367762 C167.928523,62.2280388 175,81.0906567 175,103.125196 C175,125.159735 167.97012,143.980621 153.91015,159.588419 C139.850179,175.196218 121.921906,183 100.124792,183 C78.327678,183 60.3578078,175.237949 46.2146423,159.713615 C32.0714767,144.189281 25,125.410126 25,103.375587 Z M51,101.615561 C51,116.550799 55.66662,129.681866 65,141.009153 C74.33338,152.336441 85.833265,158 99.5,158 C114.16674,158 125.916623,152.588155 134.75,141.764302 C143.583377,130.940449 148,117.557669 148,101.615561 C148,86.5125103 143.583377,73.8009669 134.75,63.4805492 C125.916623,53.1601315 114.125074,48 99.375,48 C84.6249263,48 72.8750438,53.2020838 64.125,63.6064073 C55.3749562,74.0107309 51,86.680322 51,101.615561 Z" id="O" stroke="#FFE100" stroke-width="7" fill="#FFE000" fill-rule="nonzero"></path>
            <path d="M8,102.957746 C8,75.8997082 16.6779498,52.8091723 34.0341098,33.685446 C51.3902698,14.5617197 73.2627632,5 99.6522463,5 C126.041729,5 147.863474,14.5617197 165.118136,33.685446 C182.372798,52.8091723 191,75.7979878 191,102.652582 C191,129.507177 182.423547,152.445132 165.270383,171.467136 C148.117219,190.48914 126.244725,200 99.6522463,200 C73.0597672,200 51.1365255,190.540001 33.8818636,171.619718 C16.6272016,152.699436 8,129.812341 8,102.957746 Z M40,101.313501 C40,119.507337 45.6769192,135.503364 57.0309278,149.302059 C68.3849365,163.100755 82.3744873,170 99,170 C116.842014,170 131.135685,163.407389 141.881443,150.221968 C152.627201,137.036547 158,120.733888 158,101.313501 C158,82.9152398 152.627201,67.4302688 141.881443,54.8581236 C131.135685,42.2859783 116.791327,36 98.8479381,36 C80.9045495,36 66.610878,42.3370838 55.9664948,55.0114416 C45.3221117,67.6857995 40,83.1196649 40,101.313501 Z" id="O-Copy" stroke="#FFE100" stroke-width="7" fill="#FFE000" fill-rule="nonzero"></path>
            <path d="M17,103.413146 C17,78.9915315 24.824381,58.1508427 40.4733777,40.8904538 C56.1223744,23.630065 75.843475,15 99.6372712,15 C123.431067,15 143.106411,23.630065 158.663894,40.8904538 C174.221376,58.1508427 182,78.8997223 182,103.137715 C182,127.375708 174.267132,148.078683 158.801165,165.247261 C143.335197,182.41584 123.614097,191 99.6372712,191 C75.6604458,191 55.8935886,182.461744 40.3361065,165.384977 C24.7786244,148.308209 17,127.651138 17,103.413146 Z M46,101.977117 C46,118.405879 51.0996054,132.850052 61.2989691,145.310069 C71.4983328,157.770085 84.0652174,164 99,164 C115.027572,164 127.867649,158.04697 137.520619,146.140732 C147.173588,134.234494 152,119.513436 152,101.977117 C152,85.3637613 147.173588,71.3810636 137.520619,60.0286041 C127.867649,48.6761446 114.982039,43 98.8634021,43 C82.7447648,43 69.904687,48.7222921 60.3427835,60.1670481 C50.78088,71.611804 46,85.5483542 46,101.977117 Z" id="O-Copy-2" stroke="#FFE100" stroke-width="7" fill="#FFE000" fill-rule="nonzero"></path>
            <path d="M34,102.830986 C34,83.2659429 40.2595048,66.5697092 52.7787022,52.741784 C65.2978995,38.9138589 81.07478,32 100.109817,32 C119.144854,32 134.885129,38.9138589 147.331115,52.741784 C159.7771,66.5697092 166,83.1923912 166,102.610329 C166,122.028266 159.813706,138.614172 147.440932,152.368545 C135.068158,166.122917 119.291277,173 100.109817,173 C80.9283567,173 65.1148709,166.159693 52.6688852,152.478873 C40.2228995,138.798054 34,122.248923 34,102.830986 Z M57,101.279176 C57,114.449341 61.0893062,126.028554 69.2680412,136.017162 C77.4467763,146.005771 87.5239951,151 99.5,151 C112.352298,151 122.648587,146.227737 130.389175,136.683066 C138.129764,127.138396 142,115.337218 142,101.279176 C142,87.9610318 138.129764,76.7517618 130.389175,67.6510297 C122.648587,58.5502977 112.315786,54 99.3904639,54 C86.4651416,54 76.1688528,58.587292 68.5012887,67.7620137 C60.8337245,76.9367354 57,88.1090112 57,101.279176 Z" id="O-Copy-3" stroke="#FFE100" stroke-width="7" fill="#FFE000" fill-rule="nonzero"></path>
            <path d="M45,103.276995 C45,86.9034132 50.216254,72.9306786 60.6489185,61.3583725 C71.0815829,49.7860663 84.2289834,44 100.091514,44 C115.954045,44 129.070941,49.7860663 139.442596,61.3583725 C149.81425,72.9306786 155,86.8418593 155,103.092332 C155,119.342804 149.844755,133.223208 139.53411,144.733959 C129.223465,156.244711 116.076064,162 100.091514,162 C84.1069639,162 70.9290591,156.275488 60.5574043,144.826291 C50.1857496,133.377095 45,119.527468 45,103.276995 Z M64,102.480549 C64,113.478316 67.4157734,123.147556 74.2474227,131.488558 C81.079072,139.829561 89.4965136,144 99.5,144 C110.235449,144 118.835878,140.014914 125.301546,132.044622 C131.767214,124.074331 135,114.219738 135,102.480549 C135,91.3592121 131.767214,81.9988938 125.301546,74.3993135 C118.835878,66.7997332 110.204951,63 99.4085052,63 C88.6120594,63 80.01163,66.8306253 73.6069588,74.4919908 C67.2022876,82.1533564 64,91.4827825 64,102.480549 Z" id="O-Copy-4" stroke="#FFE100" stroke-width="7" fill="#FFE000" fill-rule="nonzero"></path>
            <g id="Group-10">
                <path d="M100,0 C44.8602513,0 1.05574324e-05,45.5331229 0,101.5 C0,157.466877 44.8602724,203.000011 100,203 C155.13978,203 200,157.466877 200,101.5 C200,45.5331229 155.13978,0 100,0 Z M116.04318,15.9023453 C117.590688,15.8686977 119.078442,16.7738609 119.751689,18.2902529 C120.649493,20.3125375 119.750422,22.7026953 117.758552,23.6131092 L105.603674,29.1681767 C103.611381,30.0792335 101.240076,29.1835003 100.343117,27.1617515 C99.4453125,25.139574 100.344383,22.7326995 102.336254,21.8222857 L114.50739,16.2672181 C115.005384,16.0396147 115.52766,15.9135969 116.04318,15.9023453 Z M63.5353674,29.2345075 C65.0724662,29.0437664 66.6529772,29.7668681 67.4726562,31.2078209 C68.5641892,33.1289485 67.910473,35.6049398 66.0185811,36.7131672 L54.4682221,43.4953004 C52.5755279,44.6032063 50.1371305,43.9396843 49.0442779,42.0194141 C47.9527133,40.0983937 48.6064084,37.6222952 50.4982897,36.5141749 L62.0486803,29.7320418 C62.5218961,29.4549314 63.0232158,29.2981593 63.5353674,29.2345075 Z M117.137774,43.1967583 C117.649599,43.2606245 118.151394,43.4337917 118.624367,43.710795 L130.174831,50.4764258 C132.066723,51.586582 132.721706,54.0613946 131.628801,55.9816649 C130.535051,57.9020423 128.096706,58.5657786 126.20492,57.4575512 L114.654455,50.6919204 C112.762563,49.5817641 112.10758,47.1069515 113.200486,45.1866813 C114.019954,43.7461571 115.601563,43.0058029 117.137774,43.1967583 Z M84.2999367,47.0770545 C85.3180954,47.0770545 86.3377323,47.4705384 87.1099029,48.2543988 C88.6542441,49.8220122 88.6543497,52.3910167 87.1099029,53.9586302 L77.6833826,63.5432649 C76.1389358,65.1106641 73.6077914,65.1107712 72.0633446,63.5432649 C70.519109,61.9755442 70.5190034,59.4065398 72.0633446,57.8389263 L81.4899704,48.2543988 C82.2626689,47.470217 83.2818834,47.0770545 84.2999367,47.0770545 Z M163.339316,51.2888973 C164.861064,51.0093222 166.475612,51.6393037 167.374578,53.0301066 C168.57348,54.8834032 168.056905,57.4012933 166.230997,58.618286 L155.072741,66.0471173 C153.247572,67.2638957 150.782517,66.7396791 149.583404,64.8863825 C148.385135,63.0330859 148.884818,60.5151958 150.710621,59.2982031 L161.868982,51.8692647 C162.325908,51.5651504 162.83182,51.3822318 163.339316,51.2888973 Z M34.7328864,61.818665 C35.2451225,61.8823168 35.7629434,62.0390889 36.2359058,62.3160922 L47.7863176,69.0982253 C49.6782411,70.2083815 50.3321474,72.6833013 49.2403188,74.6035716 C48.1465688,76.5238418 45.7082559,77.1875781 43.8163746,76.0793507 L32.2496305,69.3138271 C30.3577914,68.2061355 29.702766,65.7122487 30.7956187,63.7919785 C31.6151499,62.3515614 33.1966955,61.6277096 34.7328864,61.818665 Z M100,74.1724752 C114.870777,74.1724752 126.923775,86.4058398 126.92367,101.5 C126.92367,116.593839 114.871094,128.827525 100,128.827525 C85.129223,128.827525 73.0762247,116.59416 73.0763302,101.5 C73.0763302,86.4061613 85.1289062,74.1724752 100,74.1724752 Z M146.920397,82.3972757 C147.432644,82.4609275 147.950486,82.6176995 148.423459,82.8947028 L159.973818,89.6768359 C161.865815,90.7869922 162.519742,93.261912 161.427893,95.1821822 C160.334143,97.1024525 157.895798,97.7661888 156.003906,96.6579614 L144.453547,89.8924377 C142.561655,88.7847461 141.906672,86.2907522 142.999472,84.3704819 C143.819151,82.9301721 145.384291,82.206213 146.920397,82.3972757 Z M34.4061444,93.142538 C35.4212521,93.2333008 36.4006968,93.7184048 37.1017842,94.5685959 C38.5037057,96.2695138 38.2707031,98.8165509 36.5953231,100.239715 L26.3682432,108.945441 C24.694753,110.368391 22.1667441,110.131893 20.7645798,108.431404 C19.3626584,106.730593 19.5966955,104.183449 21.2710304,102.760285 L31.4981208,94.0545592 C32.3358953,93.3429234 33.3916385,93.0511323 34.4061444,93.142538 Z M59.7778083,109.7248 C61.3222128,109.621715 62.8620038,110.446402 63.6007179,111.930218 C64.586856,113.907711 63.8022593,116.352733 61.8526394,117.352624 L49.9428209,123.454947 C47.9925465,124.453766 45.5861909,123.659512 44.6005595,121.680626 C43.614432,119.703133 44.3990182,117.258647 46.3486381,116.25822 L58.2584565,110.155897 C58.745777,109.906005 59.2630912,109.759412 59.7778083,109.7248 Z M178.66364,113.68793 C180.207981,113.584951 181.747783,114.409531 182.486486,115.893347 C183.472762,117.87309 182.67272,120.29936 180.722128,121.299251 L168.812289,127.418076 C166.863915,128.419146 164.472023,127.606031 163.486381,125.627146 C162.500211,123.649546 163.28484,121.221776 165.234481,120.221349 L177.144215,114.102524 C177.631546,113.852631 178.14886,113.722542 178.66364,113.68793 Z M137.183488,122.907692 C138.19109,123.054605 139.142209,123.596181 139.797403,124.48302 L147.802682,135.311223 C149.112542,137.085651 148.750739,139.619187 147.002111,140.949231 C145.253906,142.278632 142.757918,141.92694 141.447424,140.153262 L133.442251,129.30845 C132.132285,127.534021 132.495249,125.000486 134.242821,123.670442 C135.117293,123.005634 136.175676,122.761314 137.183488,122.907692 Z M42.6400866,134.664525 C58.3577808,134.664525 71.2068201,147.095274 72.1614231,162.804628 L72.1614231,163.119673 C72.1614231,171.904802 76.9665329,176.004022 82.8949535,176.004129 C88.8233742,176.004129 93.628484,171.126943 93.628484,165.109596 L93.628484,162.804628 C93.628484,153.912234 100.182538,147.980078 108.250317,147.980078 C116.317462,147.980078 123.21516,154.615833 123.21516,162.804628 L123.21516,175.19155 C123.215583,179.146214 126.377745,182.35508 130.272804,182.35508 C134.169024,182.354705 137.330553,179.145143 137.330553,175.19155 L137.363176,170.465564 C137.363176,158.777954 146.695207,149.306693 158.209459,149.306693 C165.173036,149.306693 171.348923,152.770788 175.134818,158.095251 C158.085515,181.375689 130.775655,196.450003 100,196.450025 C64.8538429,196.450014 34.23769,176.78531 18.2486486,147.698145 C23.5821579,139.827287 32.5172931,134.664525 42.6400866,134.664525 Z" id="Fill-7" fill="#FF0073"></path>
                <path d="M100,0 C44.8602513,0 1.04558087e-05,45.5331658 0,101.5 C0,157.466877 44.8602724,203 100,203 C155.13978,203 200,157.466877 200,101.5 C200,45.533155 155.13978,1.06126458e-05 100,0 Z M116.04318,15.9023882 C117.590688,15.8687085 119.078442,16.7739037 119.751689,18.2902314 C120.649493,20.3125911 119.750422,22.7027167 117.758552,23.6131413 L105.603674,29.1681874 C103.611349,30.0792764 101.240055,29.183511 100.343085,27.1617408 C99.4453019,25.1395419 100.344331,22.7326781 102.336223,21.8222535 L114.50739,16.2671967 C115.005384,16.0396039 115.52766,15.9136291 116.04318,15.9023882 Z M63.5353674,29.2345182 C65.0724662,29.0437235 66.6529878,29.7668253 67.4726351,31.2078102 C68.5641997,33.1288949 67.9105152,35.6049077 66.0186233,36.7131137 L54.4682221,43.4952575 C52.5755279,44.6031956 50.1371305,43.9397058 49.0442779,42.0194355 C47.9527133,40.0983508 48.6064084,37.622338 50.4982897,36.5141321 L62.0486803,29.7319882 C62.5218961,29.4549314 63.0232158,29.2981593 63.5353674,29.2345182 Z M117.137774,43.1967798 C117.649599,43.2605923 118.151394,43.433781 118.624367,43.7108271 L130.174831,50.4763936 C132.066723,51.5865499 132.721706,54.0614375 131.628801,55.9817078 C130.535051,57.9020102 128.096706,58.5657357 126.20492,57.4575298 L114.654455,50.6919633 C112.762563,49.581807 112.10758,47.1069194 113.200486,45.1866491 C114.019954,43.7461785 115.601562,43.0058029 117.137774,43.1967798 Z M84.2999578,47.077033 C85.3180743,47.0770973 86.3377323,47.4705706 87.1099451,48.2543666 C88.654223,49.8220122 88.6543813,52.3910703 87.1099451,53.958673 L77.6833826,63.5432113 C76.1389147,65.1106533 73.6078336,65.1108141 72.0633974,63.5432113 C70.5191195,61.9755657 70.5189611,59.4065184 72.0633974,57.8389156 L81.4899599,48.2543666 C82.2627006,47.4702384 83.2818412,47.077033 84.2999578,47.077033 Z M163.339316,51.2889294 C164.861064,51.0093329 166.475612,51.6393037 167.374578,53.0300531 C168.57348,54.8833925 168.056905,57.4012397 166.230997,58.6182753 L155.072741,66.047128 C153.247572,67.2639493 150.782517,66.7396683 149.583404,64.8863825 C148.385135,63.0330324 148.884818,60.5151958 150.710621,59.2981495 L161.868982,51.8693075 C162.325908,51.5651933 162.83182,51.382189 163.339316,51.2889294 Z M34.7328864,61.8186543 C35.2451225,61.8823597 35.7629434,62.0390782 36.2359058,62.3161243 L47.7863176,69.0982682 C49.6782411,70.2084351 50.3321474,72.6833227 49.2403188,74.6035823 C48.1465688,76.5238847 45.7082559,77.1875996 43.8163746,76.0793936 L32.2496305,69.3138378 C30.3577914,68.2061355 29.702766,65.7122059 30.7956187,63.7919463 C31.6151499,62.3515722 33.1966955,61.6276774 34.7328864,61.8186543 Z M100,74.1724323 C114.870777,74.172443 126.923775,86.405797 126.92367,101.5 C126.92367,116.593839 114.871094,128.827525 100,128.827525 C85.129223,128.827525 73.0762774,116.59416 73.076288,101.5 C73.0762986,86.4061613 85.128864,74.172443 100,74.1724323 Z M146.920397,82.3972328 C147.432644,82.4609489 147.950486,82.6176567 148.423459,82.8947135 L159.973818,89.6768467 C161.865815,90.7870029 162.519742,93.2618905 161.427893,95.1821501 C160.334143,97.1024632 157.895798,97.7661888 156.003906,96.6579828 L144.453547,89.892427 C142.561655,88.7847139 141.906672,86.2907844 142.999472,84.3705248 C143.819151,82.9301507 145.384291,82.2062559 146.920397,82.3972328 Z M34.4061444,93.1425487 C35.4212521,93.2333222 36.4006968,93.7183619 37.1017842,94.5686173 C38.5037057,96.2694603 38.2707031,98.8165616 36.5953231,100.239748 L26.3682432,108.945441 C24.694753,110.368391 22.1667441,110.131893 20.7645798,108.431404 C19.3626584,106.73054 19.5966955,104.183449 21.2710304,102.760252 L31.4981208,94.0545699 C32.3358953,93.3429448 33.3916385,93.0511751 34.4061444,93.1425487 Z M59.7778083,109.7248 C61.3222128,109.621715 62.8620038,110.446402 63.6007179,111.930218 C64.586856,113.907711 63.8022593,116.352733 61.8526394,117.352624 L49.9428209,123.454947 C47.9925465,124.453766 45.5861909,123.659512 44.6005595,121.680626 C43.614432,119.703133 44.3990182,117.258647 46.3486381,116.25822 L58.2584565,110.155897 C58.745777,109.906005 59.2630912,109.759412 59.7778083,109.7248 Z M178.66364,113.68793 C180.207981,113.584951 181.747783,114.409531 182.486486,115.893347 C183.472762,117.87309 182.67272,120.29936 180.722128,121.299251 L168.812289,127.418076 C166.863915,128.419146 164.472023,127.606031 163.486381,125.627146 C162.500211,123.649546 163.28484,121.221776 165.234481,120.221349 L177.144215,114.102524 C177.631546,113.852631 178.14886,113.722542 178.66364,113.68793 Z M137.183488,122.907692 C138.19109,123.054605 139.142209,123.596181 139.797403,124.48302 L147.802682,135.311223 C149.112542,137.085651 148.750739,139.619187 147.002111,140.949231 C145.253906,142.278632 142.757918,141.92694 141.447424,140.153262 L133.442251,129.30845 C132.132285,127.534021 132.495249,125.000486 134.242821,123.670442 C135.117293,123.005634 136.175676,122.761314 137.183488,122.907692 Z M42.6400866,134.664525 C58.3577808,134.664525 71.206799,147.095274 72.1614126,162.804628 L72.1614126,163.119673 C72.1614126,171.904802 76.9665013,176.004022 82.8949535,176.004129 C88.8233953,176.004129 93.6284945,171.126943 93.6284945,165.109596 L93.6284945,162.804628 C93.628484,153.912234 100.18257,147.980078 108.250317,147.980078 C116.317462,147.980078 123.21516,154.615833 123.21516,162.804628 L123.21516,175.19155 C123.215583,179.146214 126.377745,182.355059 130.272804,182.355059 C134.169024,182.354737 137.330553,179.145143 137.330553,175.19155 L137.363176,170.465564 C137.363176,158.777954 146.695207,149.306693 158.209459,149.306693 C165.173036,149.306693 171.348923,152.770788 175.134818,158.095251 C158.085515,181.375635 130.775655,196.449971 100,196.449971 C64.8538429,196.449971 34.23769,176.78531 18.2486486,147.698145 C23.5821579,139.827287 32.5172931,134.664525 42.6400866,134.664525 Z" id="Stroke-9" stroke="#FFE100"></path>
            </g>
        </g>
    </g>
</svg>