<?xml version="1.0" encoding="UTF-8"?>
<svg width="181px" height="109px" viewBox="0 0 181 109" version="1.1" xmlns="http://www.w3.org/2000/svg" xmlns:xlink="http://www.w3.org/1999/xlink">
    <!-- Generator: Sketch 54.1 (76490) - https://sketchapp.com -->
    <title>Group 3</title>
    <desc>Created with Sketch.</desc>
    <g id="Page-1" stroke="none" stroke-width="1" fill="none" fill-rule="evenodd">
        <g id="Group-3" fill="#FFE100">
            <g id="Group-2" fill-rule="nonzero">
                <path d="M62.9,57.425 C63.5500033,57.425 64.0624981,57.7374969 64.4375,58.3625 C64.8125019,58.9875031 65,59.7749952 65,60.725 C65,61.8750057 64.8250018,62.7749967 64.475,63.425 C64.1249983,64.0750033 63.5750038,64.6499975 62.825,65.15 C59.8749853,67.1000097 55.1750323,70.2999778 48.725,74.75 C46.7749903,85.1000518 44.2500155,93.2499703 41.15,99.2 C38.0499845,105.15003 34.1250238,108.125 29.375,108.125 C26.8249873,108.125 24.750008,107.337508 23.15,105.7625 C21.549992,104.187492 20.75,102.125013 20.75,99.575 C20.75,97.2249882 21.2749948,94.850012 22.325,92.45 C23.3750053,90.049988 25.3374856,87.2750157 28.2125,84.125 C31.0875144,80.9749843 35.1499738,77.3750203 40.4,73.325 L40.625,71.9 C36.6749803,73.5500082 32.800019,74.375 29,74.375 C23.399972,74.375 18.4750213,73.2875109 14.225,71.1125 C9.97497875,68.9374891 6.67501175,65.85002 4.325,61.85 C1.97498825,57.84998 0.8,53.2000265 0.8,47.9 C0.8,40.499963 2.199986,33.9625284 5,28.2875 C7.800014,22.6124716 11.6624754,18.2125156 16.5875,15.0875 C21.5125246,11.9624844 27.0249695,10.4 33.125,10.4 C38.9750293,10.4 43.3624854,11.7624864 46.2875,14.4875 C49.2125146,17.2125136 50.675,20.8249775 50.675,25.325 C50.675,28.2750147 50.1375054,30.6374911 49.0625,32.4125 C47.9874946,34.1875089 46.45001,35.075 44.45,35.075 C43.0999933,35.075 42.0125041,34.7500032 41.1875,34.1 C40.3624959,33.4499967 39.95,32.5500057 39.95,31.4 C39.95,30.8999975 40.049999,30.050006 40.25,28.85 C40.5500015,27.449993 40.7,26.350004 40.7,25.55 C40.7,23.4499895 40.0625064,21.8250058 38.7875,20.675 C37.5124936,19.5249943 35.375015,18.95 32.375,18.95 C28.7249818,18.95 25.3375156,19.9999895 22.2125,22.1 C19.0874844,24.2000105 16.5750095,27.3374791 14.675,31.5125 C12.7749905,35.6875209 11.825,40.6999708 11.825,46.55 C11.825,52.55003 13.4624836,57.1874836 16.7375,60.4625 C20.0125164,63.7375164 24.749969,65.375 30.95,65.375 C34.4000173,65.375 37.9999813,64.6000078 41.75,63.05 L42.8,53.9 L35.15,53.9 C33.749993,53.9 32.6750038,53.5625034 31.925,52.8875 C31.1749963,52.2124966 30.8,51.1000078 30.8,49.55 C30.8,48.149993 31.1749963,47.050004 31.925,46.25 C32.6750038,45.449996 33.6749938,45.05 34.925,45.05 L48.95,45.05 C50.0500055,45.05 50.9624964,45.4124964 51.6875,46.1375 C52.4125036,46.8625036 52.7000008,47.8999932 52.55,49.25 C52.3999993,50.850008 51.9000043,54.4749718 51.05,60.125 L50.225,65.825 C54.22502,62.824985 57.8749835,60.225011 61.175,58.025 C61.8250033,57.624998 62.3999975,57.425 62.9,57.425 Z M30.2,100.85 C31.5000065,100.85 32.9249923,99.3750147 34.475,96.425 C36.0250078,93.4749852 37.4749933,88.7250327 38.825,82.175 C35.024981,85.4250162 32.2875084,88.3624869 30.6125,90.9875 C28.9374916,93.6125131 28.1,95.92499 28.1,97.925 C28.1,99.8750097 28.799993,100.85 30.2,100.85 Z M88.85,57.275 C89.5000033,57.275 90.0124981,57.574997 90.3875,58.175 C90.7625019,58.775003 90.95,59.5999948 90.95,60.65 C90.95,62.65001 90.4750048,64.1999945 89.525,65.3 C87.3749893,67.9500132 85.0375126,70.1249915 82.5125,71.825 C79.9874874,73.5250085 77.125016,74.375 73.925,74.375 C69.524978,74.375 66.2625106,72.37502 64.1375,68.375 C62.0124894,64.37498 60.95,59.2000318 60.95,52.85 C60.95,46.7499695 61.7374921,39.800039 63.3125,32 C64.8875079,24.199961 67.2124846,17.500028 70.2875,11.9 C73.3625154,6.299972 77.0249788,3.5 81.275,3.5 C83.675012,3.5 85.5624931,4.61248888 86.9375,6.8375 C88.3125069,9.06251113 89,12.2499793 89,16.4 C89,22.3500298 87.3500165,29.2499607 84.05,37.1 C80.7499835,44.9500393 76.2750283,52.7249615 70.625,60.425 C70.9750018,62.4750102 71.549996,63.9374956 72.35,64.8125 C73.150004,65.6875044 74.1999935,66.125 75.5,66.125 C77.5500102,66.125 79.3499922,65.5375059 80.9,64.3625 C82.4500078,63.1874941 84.424988,61.1750143 86.825,58.325 C87.425003,57.6249965 88.0999963,57.275 88.85,57.275 Z M79.625,10.925 C78.4749943,10.925 77.1750073,12.9999793 75.725,17.15 C74.2749928,21.3000208 73.0000055,26.4499693 71.9,32.6 C70.7999945,38.7500308 70.2000005,44.6499717 70.1,50.3 C73.6500178,44.4499708 76.4749895,38.5875294 78.575,32.7125 C80.6750105,26.8374706 81.725,21.4750243 81.725,16.625 C81.725,12.824981 81.025007,10.925 79.625,10.925 Z M93.35,74.375 C90.2499845,74.375 87.7750093,73.2500113 85.925,71 C84.0749908,68.7499887 83.15,65.8000182 83.15,62.15 C83.15,58.14998 84.0749908,54.3625179 85.925,50.7875 C87.7750093,47.2124821 90.2374846,44.3375109 93.3125,42.1625 C96.3875154,39.9874891 99.6499828,38.9 103.1,38.9 C104.200006,38.9 104.937498,39.1124979 105.3125,39.5375 C105.687502,39.9625021 105.999999,40.7249945 106.25,41.825 C107.300005,41.624999 108.399994,41.525 109.55,41.525 C112.000012,41.525 113.225,42.3999912 113.225,44.15 C113.225,45.2000053 112.850004,47.6999802 112.1,51.65 C110.949994,57.4000288 110.375,61.3999888 110.375,63.65 C110.375,64.4000037 110.562498,64.9999978 110.9375,65.45 C111.312502,65.9000023 111.799997,66.125 112.4,66.125 C113.350005,66.125 114.499993,65.5125061 115.85,64.2875 C117.200007,63.0624939 119.024989,61.0750138 121.325,58.325 C121.925003,57.6249965 122.599996,57.275 123.35,57.275 C124.000003,57.275 124.512498,57.574997 124.8875,58.175 C125.262502,58.775003 125.45,59.5999948 125.45,60.65 C125.45,62.65001 124.975005,64.1999945 124.025,65.3 C121.97499,67.8500127 119.800012,69.9999912 117.5,71.75 C115.199989,73.5000088 112.975011,74.375 110.825,74.375 C109.174992,74.375 107.662507,73.8125056 106.2875,72.6875 C104.912493,71.5624944 103.875004,70.0250098 103.175,68.075 C100.574987,72.275021 97.3000198,74.375 93.35,74.375 Z M96.05,66.8 C97.1500055,66.8 98.199995,66.1500065 99.2,64.85 C100.200005,63.5499935 100.924998,61.8250107 101.375,59.675 L104.15,45.875 C102.049989,45.9250003 100.112509,46.7124924 98.3375,48.2375 C96.5624911,49.7625076 95.1500053,51.7749875 94.1,54.275 C93.0499948,56.7750125 92.525,59.424986 92.525,62.225 C92.525,63.7750078 92.8374969,64.9249962 93.4625,65.675 C94.0875031,66.4250038 94.9499945,66.8 96.05,66.8 Z M155.3,57.275 C155.950003,57.275 156.462498,57.574997 156.8375,58.175 C157.212502,58.775003 157.4,59.5999948 157.4,60.65 C157.4,62.5000093 156.925005,64.0499937 155.975,65.3 C153.624988,68.3500152 150.712517,70.7499912 147.2375,72.5 C143.762483,74.2500088 139.850022,75.125 135.5,75.125 C132.099983,75.125 129.150012,74.6125051 126.65,73.5875 C124.149987,72.5624949 122.237507,71.1625089 120.9125,69.3875 C119.587493,67.6124911 118.925,65.625011 118.925,63.425 C118.925,60.1249835 120.249987,57.2000127 122.9,54.65 C125.550013,52.0999872 129.349975,49.6500118 134.3,47.3 L122,47.6 C120.899995,47.6500003 120.062503,47.2625041 119.4875,46.4375 C118.912497,45.6124959 118.625,44.6250057 118.625,43.475 C118.625,42.274994 118.912497,41.2125046 119.4875,40.2875 C120.062503,39.3624954 120.849995,38.9 121.85,38.9 C124.150011,38.9 127.224981,39.0749983 131.075,39.425 C131.875004,39.4750003 133.337489,39.5749993 135.4625,39.725 C137.587511,39.8750007 139.374993,39.95 140.825,39.95 C141.325002,39.95 142.274993,39.750002 143.675,39.35 C143.925001,39.2999998 144.412496,39.175001 145.1375,38.975 C145.862504,38.774999 146.474998,38.675 146.975,38.675 C147.775004,38.675 148.437497,39.0249965 148.9625,39.725 C149.487503,40.4250035 149.75,41.4999928 149.75,42.95 C149.75,44.550008 149.375004,45.7999955 148.625,46.7 C147.874996,47.6000045 146.700008,48.3999965 145.1,49.1 C140.549977,51.0500098 136.775015,53.1374889 133.775,55.3625 C130.774985,57.5875111 129.275,59.799989 129.275,62 C129.275,63.400007 129.924993,64.5499955 131.225,65.45 C132.525006,66.3500045 134.449987,66.8 137,66.8 C139.800014,66.8 142.637486,66.100007 145.5125,64.7 C148.387514,63.299993 150.974988,61.1750143 153.275,58.325 C153.875003,57.6249965 154.549996,57.275 155.3,57.275 Z M178.1,59.525 C178.750003,59.525 179.262498,59.824997 179.6375,60.425 C180.012502,61.025003 180.2,61.8499948 180.2,62.9 C180.2,64.700009 179.775004,66.2499935 178.925,67.55 C177.524993,69.7000107 175.687511,71.374994 173.4125,72.575 C171.137489,73.775006 168.425016,74.375 165.275,74.375 C160.474976,74.375 156.750013,72.9375144 154.1,70.0625 C151.449987,67.1874856 150.125,63.3000245 150.125,58.4 C150.125,54.9499828 150.849993,51.7375149 152.3,48.7625 C153.750007,45.7874851 155.762487,43.4250088 158.3375,41.675 C160.912513,39.9249913 163.824984,39.05 167.075,39.05 C169.975014,39.05 172.299991,39.9124914 174.05,41.6375 C175.800009,43.3625086 176.675,45.6999852 176.675,48.65 C176.675,52.1000173 175.437512,55.0624876 172.9625,57.5375 C170.487488,60.0125124 166.27503,61.9749927 160.325,63.425 C161.525006,65.7250115 163.549986,66.875 166.4,66.875 C168.45001,66.875 170.137493,66.4000047 171.4625,65.45 C172.787507,64.4999952 174.324991,62.9000113 176.075,60.65 C176.675003,59.8999963 177.349996,59.525 178.1,59.525 Z M165.8,46.4 C163.949991,46.4 162.387506,47.4749893 161.1125,49.625 C159.837494,51.7750108 159.2,54.3749848 159.2,57.425 L159.2,57.575 C162.150015,56.8749965 164.474991,55.825007 166.175,54.425 C167.875008,53.024993 168.725,51.4000093 168.725,49.55 C168.725,48.5999953 168.462503,47.8375029 167.9375,47.2625 C167.412497,46.6874971 166.7,46.4 165.8,46.4 Z" id="Glaze"></path>
                <path d="M62.9,54.425 C63.5500033,54.425 64.0624981,54.7374969 64.4375,55.3625 C64.8125019,55.9875031 65,56.7749952 65,57.725 C65,58.8750057 64.8250018,59.7749967 64.475,60.425 C64.1249983,61.0750033 63.5750038,61.6499975 62.825,62.15 C59.8749853,64.1000097 55.1750323,67.2999778 48.725,71.75 C46.7749903,82.1000518 44.2500155,90.2499703 41.15,96.2 C38.0499845,102.15003 34.1250238,105.125 29.375,105.125 C26.8249873,105.125 24.750008,104.337508 23.15,102.7625 C21.549992,101.187492 20.75,99.1250127 20.75,96.575 C20.75,94.2249882 21.2749948,91.850012 22.325,89.45 C23.3750053,87.049988 25.3374856,84.2750157 28.2125,81.125 C31.0875144,77.9749843 35.1499738,74.3750203 40.4,70.325 L40.625,68.9 C36.6749803,70.5500082 32.800019,71.375 29,71.375 C23.399972,71.375 18.4750213,70.2875109 14.225,68.1125 C9.97497875,65.9374891 6.67501175,62.85002 4.325,58.85 C1.97498825,54.84998 0.8,50.2000265 0.8,44.9 C0.8,37.499963 2.199986,30.9625284 5,25.2875 C7.800014,19.6124716 11.6624754,15.2125156 16.5875,12.0875 C21.5125246,8.96248438 27.0249695,7.4 33.125,7.4 C38.9750293,7.4 43.3624854,8.76248638 46.2875,11.4875 C49.2125146,14.2125136 50.675,17.8249775 50.675,22.325 C50.675,25.2750147 50.1375054,27.6374911 49.0625,29.4125 C47.9874946,31.1875089 46.45001,32.075 44.45,32.075 C43.0999933,32.075 42.0125041,31.7500032 41.1875,31.1 C40.3624959,30.4499967 39.95,29.5500057 39.95,28.4 C39.95,27.8999975 40.049999,27.050006 40.25,25.85 C40.5500015,24.449993 40.7,23.350004 40.7,22.55 C40.7,20.4499895 40.0625064,18.8250058 38.7875,17.675 C37.5124936,16.5249943 35.375015,15.95 32.375,15.95 C28.7249818,15.95 25.3375156,16.9999895 22.2125,19.1 C19.0874844,21.2000105 16.5750095,24.3374791 14.675,28.5125 C12.7749905,32.6875209 11.825,37.6999708 11.825,43.55 C11.825,49.55003 13.4624836,54.1874836 16.7375,57.4625 C20.0125164,60.7375164 24.749969,62.375 30.95,62.375 C34.4000173,62.375 37.9999813,61.6000078 41.75,60.05 L42.8,50.9 L35.15,50.9 C33.749993,50.9 32.6750038,50.5625034 31.925,49.8875 C31.1749963,49.2124966 30.8,48.1000078 30.8,46.55 C30.8,45.149993 31.1749963,44.050004 31.925,43.25 C32.6750038,42.449996 33.6749938,42.05 34.925,42.05 L48.95,42.05 C50.0500055,42.05 50.9624964,42.4124964 51.6875,43.1375 C52.4125036,43.8625036 52.7000008,44.8999932 52.55,46.25 C52.3999993,47.850008 51.9000043,51.4749718 51.05,57.125 L50.225,62.825 C54.22502,59.824985 57.8749835,57.225011 61.175,55.025 C61.8250033,54.624998 62.3999975,54.425 62.9,54.425 Z M30.2,97.85 C31.5000065,97.85 32.9249923,96.3750147 34.475,93.425 C36.0250078,90.4749852 37.4749933,85.7250327 38.825,79.175 C35.024981,82.4250162 32.2875084,85.3624869 30.6125,87.9875 C28.9374916,90.6125131 28.1,92.92499 28.1,94.925 C28.1,96.8750097 28.799993,97.85 30.2,97.85 Z M88.85,54.275 C89.5000033,54.275 90.0124981,54.574997 90.3875,55.175 C90.7625019,55.775003 90.95,56.5999948 90.95,57.65 C90.95,59.65001 90.4750048,61.1999945 89.525,62.3 C87.3749893,64.9500132 85.0375126,67.1249915 82.5125,68.825 C79.9874874,70.5250085 77.125016,71.375 73.925,71.375 C69.524978,71.375 66.2625106,69.37502 64.1375,65.375 C62.0124894,61.37498 60.95,56.2000318 60.95,49.85 C60.95,43.7499695 61.7374921,36.800039 63.3125,29 C64.8875079,21.199961 67.2124846,14.500028 70.2875,8.9 C73.3625154,3.299972 77.0249788,0.5 81.275,0.5 C83.675012,0.5 85.5624931,1.61248888 86.9375,3.8375 C88.3125069,6.06251113 89,9.24997925 89,13.4 C89,19.3500298 87.3500165,26.2499607 84.05,34.1 C80.7499835,41.9500393 76.2750283,49.7249615 70.625,57.425 C70.9750018,59.4750102 71.549996,60.9374956 72.35,61.8125 C73.150004,62.6875044 74.1999935,63.125 75.5,63.125 C77.5500102,63.125 79.3499922,62.5375059 80.9,61.3625 C82.4500078,60.1874941 84.424988,58.1750143 86.825,55.325 C87.425003,54.6249965 88.0999963,54.275 88.85,54.275 Z M79.625,7.925 C78.4749943,7.925 77.1750073,9.99997925 75.725,14.15 C74.2749928,18.3000208 73.0000055,23.4499693 71.9,29.6 C70.7999945,35.7500308 70.2000005,41.6499717 70.1,47.3 C73.6500178,41.4499708 76.4749895,35.5875294 78.575,29.7125 C80.6750105,23.8374706 81.725,18.4750243 81.725,13.625 C81.725,9.824981 81.025007,7.925 79.625,7.925 Z M93.35,71.375 C90.2499845,71.375 87.7750093,70.2500113 85.925,68 C84.0749908,65.7499887 83.15,62.8000182 83.15,59.15 C83.15,55.14998 84.0749908,51.3625179 85.925,47.7875 C87.7750093,44.2124821 90.2374846,41.3375109 93.3125,39.1625 C96.3875154,36.9874891 99.6499828,35.9 103.1,35.9 C104.200006,35.9 104.937498,36.1124979 105.3125,36.5375 C105.687502,36.9625021 105.999999,37.7249945 106.25,38.825 C107.300005,38.624999 108.399994,38.525 109.55,38.525 C112.000012,38.525 113.225,39.3999912 113.225,41.15 C113.225,42.2000053 112.850004,44.6999802 112.1,48.65 C110.949994,54.4000288 110.375,58.3999888 110.375,60.65 C110.375,61.4000037 110.562498,61.9999978 110.9375,62.45 C111.312502,62.9000023 111.799997,63.125 112.4,63.125 C113.350005,63.125 114.499993,62.5125061 115.85,61.2875 C117.200007,60.0624939 119.024989,58.0750138 121.325,55.325 C121.925003,54.6249965 122.599996,54.275 123.35,54.275 C124.000003,54.275 124.512498,54.574997 124.8875,55.175 C125.262502,55.775003 125.45,56.5999948 125.45,57.65 C125.45,59.65001 124.975005,61.1999945 124.025,62.3 C121.97499,64.8500127 119.800012,66.9999912 117.5,68.75 C115.199989,70.5000088 112.975011,71.375 110.825,71.375 C109.174992,71.375 107.662507,70.8125056 106.2875,69.6875 C104.912493,68.5624944 103.875004,67.0250098 103.175,65.075 C100.574987,69.275021 97.3000198,71.375 93.35,71.375 Z M96.05,63.8 C97.1500055,63.8 98.199995,63.1500065 99.2,61.85 C100.200005,60.5499935 100.924998,58.8250107 101.375,56.675 L104.15,42.875 C102.049989,42.9250003 100.112509,43.7124924 98.3375,45.2375 C96.5624911,46.7625076 95.1500053,48.7749875 94.1,51.275 C93.0499948,53.7750125 92.525,56.424986 92.525,59.225 C92.525,60.7750078 92.8374969,61.9249962 93.4625,62.675 C94.0875031,63.4250038 94.9499945,63.8 96.05,63.8 Z M155.3,54.275 C155.950003,54.275 156.462498,54.574997 156.8375,55.175 C157.212502,55.775003 157.4,56.5999948 157.4,57.65 C157.4,59.5000093 156.925005,61.0499937 155.975,62.3 C153.624988,65.3500152 150.712517,67.7499912 147.2375,69.5 C143.762483,71.2500088 139.850022,72.125 135.5,72.125 C132.099983,72.125 129.150012,71.6125051 126.65,70.5875 C124.149987,69.5624949 122.237507,68.1625089 120.9125,66.3875 C119.587493,64.6124911 118.925,62.625011 118.925,60.425 C118.925,57.1249835 120.249987,54.2000127 122.9,51.65 C125.550013,49.0999872 129.349975,46.6500118 134.3,44.3 L122,44.6 C120.899995,44.6500003 120.062503,44.2625041 119.4875,43.4375 C118.912497,42.6124959 118.625,41.6250057 118.625,40.475 C118.625,39.274994 118.912497,38.2125046 119.4875,37.2875 C120.062503,36.3624954 120.849995,35.9 121.85,35.9 C124.150011,35.9 127.224981,36.0749983 131.075,36.425 C131.875004,36.4750003 133.337489,36.5749993 135.4625,36.725 C137.587511,36.8750007 139.374993,36.95 140.825,36.95 C141.325002,36.95 142.274993,36.750002 143.675,36.35 C143.925001,36.2999998 144.412496,36.175001 145.1375,35.975 C145.862504,35.774999 146.474998,35.675 146.975,35.675 C147.775004,35.675 148.437497,36.0249965 148.9625,36.725 C149.487503,37.4250035 149.75,38.4999928 149.75,39.95 C149.75,41.550008 149.375004,42.7999955 148.625,43.7 C147.874996,44.6000045 146.700008,45.3999965 145.1,46.1 C140.549977,48.0500098 136.775015,50.1374889 133.775,52.3625 C130.774985,54.5875111 129.275,56.799989 129.275,59 C129.275,60.400007 129.924993,61.5499955 131.225,62.45 C132.525006,63.3500045 134.449987,63.8 137,63.8 C139.800014,63.8 142.637486,63.100007 145.5125,61.7 C148.387514,60.299993 150.974988,58.1750143 153.275,55.325 C153.875003,54.6249965 154.549996,54.275 155.3,54.275 Z M178.1,56.525 C178.750003,56.525 179.262498,56.824997 179.6375,57.425 C180.012502,58.025003 180.2,58.8499948 180.2,59.9 C180.2,61.700009 179.775004,63.2499935 178.925,64.55 C177.524993,66.7000107 175.687511,68.374994 173.4125,69.575 C171.137489,70.775006 168.425016,71.375 165.275,71.375 C160.474976,71.375 156.750013,69.9375144 154.1,67.0625 C151.449987,64.1874856 150.125,60.3000245 150.125,55.4 C150.125,51.9499828 150.849993,48.7375149 152.3,45.7625 C153.750007,42.7874851 155.762487,40.4250088 158.3375,38.675 C160.912513,36.9249913 163.824984,36.05 167.075,36.05 C169.975014,36.05 172.299991,36.9124914 174.05,38.6375 C175.800009,40.3625086 176.675,42.6999852 176.675,45.65 C176.675,49.1000173 175.437512,52.0624876 172.9625,54.5375 C170.487488,57.0125124 166.27503,58.9749927 160.325,60.425 C161.525006,62.7250115 163.549986,63.875 166.4,63.875 C168.45001,63.875 170.137493,63.4000047 171.4625,62.45 C172.787507,61.4999952 174.324991,59.9000113 176.075,57.65 C176.675003,56.8999963 177.349996,56.525 178.1,56.525 Z M165.8,43.4 C163.949991,43.4 162.387506,44.4749893 161.1125,46.625 C159.837494,48.7750108 159.2,51.3749848 159.2,54.425 L159.2,54.575 C162.150015,53.8749965 164.474991,52.825007 166.175,51.425 C167.875008,50.024993 168.725,48.4000093 168.725,46.55 C168.725,45.5999953 168.462503,44.8375029 167.9375,44.2625 C167.412497,43.6874971 166.7,43.4 165.8,43.4 Z" id="Glaze"></path>
            </g>
            <rect id="Rectangle" x="30" y="42" width="10" height="12" rx="3"></rect>
        </g>
    </g>
</svg>