<?xml version="1.0" encoding="UTF-8"?>
<svg width="181px" height="109px" viewBox="0 0 181 109" version="1.1" xmlns="http://www.w3.org/2000/svg" xmlns:xlink="http://www.w3.org/1999/xlink">
    <!-- Generator: Sketch 54.1 (76490) - https://sketchapp.com -->
    <title>Group 3</title>
    <desc>Created with Sketch.</desc>
    <g id="Page-1" stroke="none" stroke-width="1" fill="none" fill-rule="evenodd">
        <g id="Group-3" transform="translate(-4.000000, -27.000000)" fill="#000000">
            <g id="Group-2" fill-rule="nonzero">
                <path d="M66.9,84.425 C67.5500033,84.425 68.0624981,84.7374969 68.4375,85.3625 C68.8125019,85.9875031 69,86.7749952 69,87.725 C69,88.8750057 68.8250017,89.7749967 68.475,90.425 C68.1249983,91.0750033 67.5750038,91.6499975 66.825,92.15 C63.8749852,94.1000097 59.1750323,97.2999778 52.725,101.75 C50.7749903,112.100052 48.2500155,120.24997 45.15,126.2 C42.0499845,132.15003 38.1250237,135.125 33.375,135.125 C30.8249872,135.125 28.750008,134.337508 27.15,132.7625 C25.549992,131.187492 24.75,129.125013 24.75,126.575 C24.75,124.224988 25.2749948,121.850012 26.325,119.45 C27.3750052,117.049988 29.3374856,114.275016 32.2125,111.125 C35.0875144,107.974984 39.1499738,104.37502 44.4,100.325 L44.625,98.9 C40.6749802,100.550008 36.800019,101.375 33,101.375 C27.399972,101.375 22.4750212,100.287511 18.225,98.1125 C13.9749787,95.9374891 10.6750117,92.85002 8.325,88.85 C5.97498825,84.84998 4.8,80.2000265 4.8,74.9 C4.8,67.499963 6.199986,60.9625284 9,55.2875 C11.800014,49.6124716 15.6624754,45.2125156 20.5875,42.0875 C25.5125246,38.9624844 31.0249695,37.4 37.125,37.4 C42.9750292,37.4 47.3624854,38.7624864 50.2875,41.4875 C53.2125146,44.2125136 54.675,47.8249775 54.675,52.325 C54.675,55.2750147 54.1375054,57.6374911 53.0625,59.4125 C51.9874946,61.1875089 50.45001,62.075 48.45,62.075 C47.0999932,62.075 46.0125041,61.7500032 45.1875,61.1 C44.3624959,60.4499967 43.95,59.5500057 43.95,58.4 C43.95,57.8999975 44.049999,57.050006 44.25,55.85 C44.5500015,54.449993 44.7,53.350004 44.7,52.55 C44.7,50.4499895 44.0625064,48.8250058 42.7875,47.675 C41.5124936,46.5249943 39.375015,45.95 36.375,45.95 C32.7249817,45.95 29.3375156,46.9999895 26.2125,49.1 C23.0874844,51.2000105 20.5750095,54.3374791 18.675,58.5125 C16.7749905,62.6875209 15.825,67.6999708 15.825,73.55 C15.825,79.55003 17.4624836,84.1874836 20.7375,87.4625 C24.0125164,90.7375164 28.749969,92.375 34.95,92.375 C38.4000172,92.375 41.9999813,91.6000078 45.75,90.05 L46.8,80.9 L39.15,80.9 C37.749993,80.9 36.6750037,80.5625034 35.925,79.8875 C35.1749962,79.2124966 34.8,78.1000078 34.8,76.55 C34.8,75.149993 35.1749962,74.050004 35.925,73.25 C36.6750037,72.449996 37.6749937,72.05 38.925,72.05 L52.95,72.05 C54.0500055,72.05 54.9624964,72.4124964 55.6875,73.1375 C56.4125036,73.8625036 56.7000008,74.8999932 56.55,76.25 C56.3999993,77.850008 55.9000042,81.4749718 55.05,87.125 L54.225,92.825 C58.22502,89.824985 61.8749835,87.225011 65.175,85.025 C65.8250032,84.624998 66.3999975,84.425 66.9,84.425 Z M34.2,127.85 C35.5000065,127.85 36.9249923,126.375015 38.475,123.425 C40.0250078,120.474985 41.4749932,115.725033 42.825,109.175 C39.024981,112.425016 36.2875084,115.362487 34.6125,117.9875 C32.9374916,120.612513 32.1,122.92499 32.1,124.925 C32.1,126.87501 32.799993,127.85 34.2,127.85 Z M92.85,84.275 C93.5000032,84.275 94.0124981,84.574997 94.3875,85.175 C94.7625019,85.775003 94.95,86.5999948 94.95,87.65 C94.95,89.65001 94.4750047,91.1999945 93.525,92.3 C91.3749892,94.9500132 89.0375126,97.1249915 86.5125,98.825 C83.9874874,100.525008 81.125016,101.375 77.925,101.375 C73.524978,101.375 70.2625106,99.37502 68.1375,95.375 C66.0124894,91.37498 64.95,86.2000317 64.95,79.85 C64.95,73.7499695 65.7374921,66.800039 67.3125,59 C68.8875079,51.199961 71.2124846,44.500028 74.2875,38.9 C77.3625154,33.299972 81.0249787,30.5 85.275,30.5 C87.675012,30.5 89.5624931,31.6124889 90.9375,33.8375 C92.3125069,36.0625111 93,39.2499793 93,43.4 C93,49.3500298 91.3500165,56.2499607 88.05,64.1 C84.7499835,71.9500393 80.2750282,79.7249615 74.625,87.425 C74.9750017,89.4750102 75.549996,90.9374956 76.35,91.8125 C77.150004,92.6875044 78.1999935,93.125 79.5,93.125 C81.5500102,93.125 83.3499922,92.5375059 84.9,91.3625 C86.4500077,90.1874941 88.424988,88.1750143 90.825,85.325 C91.425003,84.6249965 92.0999962,84.275 92.85,84.275 Z M83.625,37.925 C82.4749942,37.925 81.1750072,39.9999793 79.725,44.15 C78.2749927,48.3000208 77.0000055,53.4499693 75.9,59.6 C74.7999945,65.7500308 74.2000005,71.6499717 74.1,77.3 C77.6500177,71.4499708 80.4749895,65.5875294 82.575,59.7125 C84.6750105,53.8374706 85.725,48.4750243 85.725,43.625 C85.725,39.824981 85.025007,37.925 83.625,37.925 Z M97.35,101.375 C94.2499845,101.375 91.7750092,100.250011 89.925,98 C88.0749907,95.7499887 87.15,92.8000182 87.15,89.15 C87.15,85.14998 88.0749907,81.3625179 89.925,77.7875 C91.7750092,74.2124821 94.2374846,71.3375109 97.3125,69.1625 C100.387515,66.9874891 103.649983,65.9 107.1,65.9 C108.200006,65.9 108.937498,66.1124979 109.3125,66.5375 C109.687502,66.9625021 109.999999,67.7249945 110.25,68.825 C111.300005,68.624999 112.399994,68.525 113.55,68.525 C116.000012,68.525 117.225,69.3999912 117.225,71.15 C117.225,72.2000053 116.850004,74.6999802 116.1,78.65 C114.949994,84.4000288 114.375,88.3999888 114.375,90.65 C114.375,91.4000037 114.562498,91.9999978 114.9375,92.45 C115.312502,92.9000023 115.799997,93.125 116.4,93.125 C117.350005,93.125 118.499993,92.5125061 119.85,91.2875 C121.200007,90.0624939 123.024988,88.0750138 125.325,85.325 C125.925003,84.6249965 126.599996,84.275 127.35,84.275 C128.000003,84.275 128.512498,84.574997 128.8875,85.175 C129.262502,85.775003 129.45,86.5999948 129.45,87.65 C129.45,89.65001 128.975005,91.1999945 128.025,92.3 C125.97499,94.8500127 123.800011,96.9999912 121.5,98.75 C119.199988,100.500009 116.975011,101.375 114.825,101.375 C113.174992,101.375 111.662507,100.812506 110.2875,99.6875 C108.912493,98.5624944 107.875003,97.0250098 107.175,95.075 C104.574987,99.275021 101.30002,101.375 97.35,101.375 Z M100.05,93.8 C101.150005,93.8 102.199995,93.1500065 103.2,91.85 C104.200005,90.5499935 104.924998,88.8250107 105.375,86.675 L108.15,72.875 C106.049989,72.9250003 104.112509,73.7124924 102.3375,75.2375 C100.562491,76.7625076 99.1500052,78.7749875 98.1,81.275 C97.0499947,83.7750125 96.525,86.424986 96.525,89.225 C96.525,90.7750078 96.8374969,91.9249962 97.4625,92.675 C98.0875031,93.4250038 98.9499945,93.8 100.05,93.8 Z M159.3,84.275 C159.950003,84.275 160.462498,84.574997 160.8375,85.175 C161.212502,85.775003 161.4,86.5999948 161.4,87.65 C161.4,89.5000093 160.925005,91.0499937 159.975,92.3 C157.624988,95.3500152 154.712517,97.7499912 151.2375,99.5 C147.762483,101.250009 143.850022,102.125 139.5,102.125 C136.099983,102.125 133.150012,101.612505 130.65,100.5875 C128.149987,99.5624949 126.237507,98.1625089 124.9125,96.3875 C123.587493,94.6124911 122.925,92.625011 122.925,90.425 C122.925,87.1249835 124.249987,84.2000127 126.9,81.65 C129.550013,79.0999872 133.349975,76.6500118 138.3,74.3 L126,74.6 C124.899994,74.6500003 124.062503,74.2625041 123.4875,73.4375 C122.912497,72.6124959 122.625,71.6250057 122.625,70.475 C122.625,69.274994 122.912497,68.2125046 123.4875,67.2875 C124.062503,66.3624954 124.849995,65.9 125.85,65.9 C128.150011,65.9 131.224981,66.0749983 135.075,66.425 C135.875004,66.4750003 137.337489,66.5749993 139.4625,66.725 C141.587511,66.8750007 143.374993,66.95 144.825,66.95 C145.325002,66.95 146.274993,66.750002 147.675,66.35 C147.925001,66.2999998 148.412496,66.175001 149.1375,65.975 C149.862504,65.774999 150.474998,65.675 150.975,65.675 C151.775004,65.675 152.437497,66.0249965 152.9625,66.725 C153.487503,67.4250035 153.75,68.4999928 153.75,69.95 C153.75,71.550008 153.375004,72.7999955 152.625,73.7 C151.874996,74.6000045 150.700008,75.3999965 149.1,76.1 C144.549977,78.0500098 140.775015,80.1374889 137.775,82.3625 C134.774985,84.5875111 133.275,86.799989 133.275,89 C133.275,90.400007 133.924993,91.5499955 135.225,92.45 C136.525006,93.3500045 138.449987,93.8 141,93.8 C143.800014,93.8 146.637486,93.100007 149.5125,91.7 C152.387514,90.299993 154.974988,88.1750143 157.275,85.325 C157.875003,84.6249965 158.549996,84.275 159.3,84.275 Z M182.1,86.525 C182.750003,86.525 183.262498,86.824997 183.6375,87.425 C184.012502,88.025003 184.2,88.8499948 184.2,89.9 C184.2,91.700009 183.775004,93.2499935 182.925,94.55 C181.524993,96.7000107 179.687511,98.374994 177.4125,99.575 C175.137489,100.775006 172.425016,101.375 169.275,101.375 C164.474976,101.375 160.750013,99.9375144 158.1,97.0625 C155.449987,94.1874856 154.125,90.3000245 154.125,85.4 C154.125,81.9499828 154.849993,78.7375149 156.3,75.7625 C157.750007,72.7874851 159.762487,70.4250088 162.3375,68.675 C164.912513,66.9249913 167.824984,66.05 171.075,66.05 C173.975014,66.05 176.299991,66.9124914 178.05,68.6375 C179.800009,70.3625086 180.675,72.6999852 180.675,75.65 C180.675,79.1000173 179.437512,82.0624876 176.9625,84.5375 C174.487488,87.0125124 170.27503,88.9749927 164.325,90.425 C165.525006,92.7250115 167.549986,93.875 170.4,93.875 C172.45001,93.875 174.137493,93.4000047 175.4625,92.45 C176.787507,91.4999952 178.324991,89.9000113 180.075,87.65 C180.675003,86.8999963 181.349996,86.525 182.1,86.525 Z M169.8,73.4 C167.949991,73.4 166.387506,74.4749893 165.1125,76.625 C163.837494,78.7750108 163.2,81.3749848 163.2,84.425 L163.2,84.575 C166.150015,83.8749965 168.474991,82.825007 170.175,81.425 C171.875008,80.024993 172.725,78.4000093 172.725,76.55 C172.725,75.5999953 172.462503,74.8375029 171.9375,74.2625 C171.412497,73.6874971 170.7,73.4 169.8,73.4 Z" id="Glaze"></path>
                <path d="M66.9,81.425 C67.5500033,81.425 68.0624981,81.7374969 68.4375,82.3625 C68.8125019,82.9875031 69,83.7749952 69,84.725 C69,85.8750057 68.8250017,86.7749967 68.475,87.425 C68.1249983,88.0750033 67.5750038,88.6499975 66.825,89.15 C63.8749852,91.1000097 59.1750323,94.2999778 52.725,98.75 C50.7749903,109.100052 48.2500155,117.24997 45.15,123.2 C42.0499845,129.15003 38.1250237,132.125 33.375,132.125 C30.8249872,132.125 28.750008,131.337508 27.15,129.7625 C25.549992,128.187492 24.75,126.125013 24.75,123.575 C24.75,121.224988 25.2749948,118.850012 26.325,116.45 C27.3750052,114.049988 29.3374856,111.275016 32.2125,108.125 C35.0875144,104.974984 39.1499738,101.37502 44.4,97.325 L44.625,95.9 C40.6749802,97.5500082 36.800019,98.375 33,98.375 C27.399972,98.375 22.4750212,97.2875109 18.225,95.1125 C13.9749787,92.9374891 10.6750117,89.85002 8.325,85.85 C5.97498825,81.84998 4.8,77.2000265 4.8,71.9 C4.8,64.499963 6.199986,57.9625284 9,52.2875 C11.800014,46.6124716 15.6624754,42.2125156 20.5875,39.0875 C25.5125246,35.9624844 31.0249695,34.4 37.125,34.4 C42.9750292,34.4 47.3624854,35.7624864 50.2875,38.4875 C53.2125146,41.2125136 54.675,44.8249775 54.675,49.325 C54.675,52.2750147 54.1375054,54.6374911 53.0625,56.4125 C51.9874946,58.1875089 50.45001,59.075 48.45,59.075 C47.0999932,59.075 46.0125041,58.7500032 45.1875,58.1 C44.3624959,57.4499967 43.95,56.5500057 43.95,55.4 C43.95,54.8999975 44.049999,54.050006 44.25,52.85 C44.5500015,51.449993 44.7,50.350004 44.7,49.55 C44.7,47.4499895 44.0625064,45.8250058 42.7875,44.675 C41.5124936,43.5249943 39.375015,42.95 36.375,42.95 C32.7249817,42.95 29.3375156,43.9999895 26.2125,46.1 C23.0874844,48.2000105 20.5750095,51.3374791 18.675,55.5125 C16.7749905,59.6875209 15.825,64.6999708 15.825,70.55 C15.825,76.55003 17.4624836,81.1874836 20.7375,84.4625 C24.0125164,87.7375164 28.749969,89.375 34.95,89.375 C38.4000172,89.375 41.9999813,88.6000078 45.75,87.05 L46.8,77.9 L39.15,77.9 C37.749993,77.9 36.6750037,77.5625034 35.925,76.8875 C35.1749962,76.2124966 34.8,75.1000078 34.8,73.55 C34.8,72.149993 35.1749962,71.050004 35.925,70.25 C36.6750037,69.449996 37.6749937,69.05 38.925,69.05 L52.95,69.05 C54.0500055,69.05 54.9624964,69.4124964 55.6875,70.1375 C56.4125036,70.8625036 56.7000008,71.8999932 56.55,73.25 C56.3999993,74.850008 55.9000042,78.4749718 55.05,84.125 L54.225,89.825 C58.22502,86.824985 61.8749835,84.225011 65.175,82.025 C65.8250032,81.624998 66.3999975,81.425 66.9,81.425 Z M34.2,124.85 C35.5000065,124.85 36.9249923,123.375015 38.475,120.425 C40.0250078,117.474985 41.4749932,112.725033 42.825,106.175 C39.024981,109.425016 36.2875084,112.362487 34.6125,114.9875 C32.9374916,117.612513 32.1,119.92499 32.1,121.925 C32.1,123.87501 32.799993,124.85 34.2,124.85 Z M92.85,81.275 C93.5000032,81.275 94.0124981,81.574997 94.3875,82.175 C94.7625019,82.775003 94.95,83.5999948 94.95,84.65 C94.95,86.65001 94.4750047,88.1999945 93.525,89.3 C91.3749892,91.9500132 89.0375126,94.1249915 86.5125,95.825 C83.9874874,97.5250085 81.125016,98.375 77.925,98.375 C73.524978,98.375 70.2625106,96.37502 68.1375,92.375 C66.0124894,88.37498 64.95,83.2000317 64.95,76.85 C64.95,70.7499695 65.7374921,63.800039 67.3125,56 C68.8875079,48.199961 71.2124846,41.500028 74.2875,35.9 C77.3625154,30.299972 81.0249787,27.5 85.275,27.5 C87.675012,27.5 89.5624931,28.6124889 90.9375,30.8375 C92.3125069,33.0625111 93,36.2499793 93,40.4 C93,46.3500298 91.3500165,53.2499607 88.05,61.1 C84.7499835,68.9500393 80.2750282,76.7249615 74.625,84.425 C74.9750017,86.4750102 75.549996,87.9374956 76.35,88.8125 C77.150004,89.6875044 78.1999935,90.125 79.5,90.125 C81.5500102,90.125 83.3499922,89.5375059 84.9,88.3625 C86.4500077,87.1874941 88.424988,85.1750143 90.825,82.325 C91.425003,81.6249965 92.0999962,81.275 92.85,81.275 Z M83.625,34.925 C82.4749942,34.925 81.1750072,36.9999793 79.725,41.15 C78.2749927,45.3000208 77.0000055,50.4499693 75.9,56.6 C74.7999945,62.7500308 74.2000005,68.6499717 74.1,74.3 C77.6500177,68.4499708 80.4749895,62.5875294 82.575,56.7125 C84.6750105,50.8374706 85.725,45.4750243 85.725,40.625 C85.725,36.824981 85.025007,34.925 83.625,34.925 Z M97.35,98.375 C94.2499845,98.375 91.7750092,97.2500113 89.925,95 C88.0749907,92.7499887 87.15,89.8000182 87.15,86.15 C87.15,82.14998 88.0749907,78.3625179 89.925,74.7875 C91.7750092,71.2124821 94.2374846,68.3375109 97.3125,66.1625 C100.387515,63.9874891 103.649983,62.9 107.1,62.9 C108.200006,62.9 108.937498,63.1124979 109.3125,63.5375 C109.687502,63.9625021 109.999999,64.7249945 110.25,65.825 C111.300005,65.624999 112.399994,65.525 113.55,65.525 C116.000012,65.525 117.225,66.3999912 117.225,68.15 C117.225,69.2000053 116.850004,71.6999802 116.1,75.65 C114.949994,81.4000288 114.375,85.3999888 114.375,87.65 C114.375,88.4000037 114.562498,88.9999978 114.9375,89.45 C115.312502,89.9000023 115.799997,90.125 116.4,90.125 C117.350005,90.125 118.499993,89.5125061 119.85,88.2875 C121.200007,87.0624939 123.024988,85.0750138 125.325,82.325 C125.925003,81.6249965 126.599996,81.275 127.35,81.275 C128.000003,81.275 128.512498,81.574997 128.8875,82.175 C129.262502,82.775003 129.45,83.5999948 129.45,84.65 C129.45,86.65001 128.975005,88.1999945 128.025,89.3 C125.97499,91.8500127 123.800011,93.9999912 121.5,95.75 C119.199988,97.5000088 116.975011,98.375 114.825,98.375 C113.174992,98.375 111.662507,97.8125056 110.2875,96.6875 C108.912493,95.5624944 107.875003,94.0250098 107.175,92.075 C104.574987,96.275021 101.30002,98.375 97.35,98.375 Z M100.05,90.8 C101.150005,90.8 102.199995,90.1500065 103.2,88.85 C104.200005,87.5499935 104.924998,85.8250107 105.375,83.675 L108.15,69.875 C106.049989,69.9250003 104.112509,70.7124924 102.3375,72.2375 C100.562491,73.7625076 99.1500052,75.7749875 98.1,78.275 C97.0499947,80.7750125 96.525,83.424986 96.525,86.225 C96.525,87.7750078 96.8374969,88.9249962 97.4625,89.675 C98.0875031,90.4250038 98.9499945,90.8 100.05,90.8 Z M159.3,81.275 C159.950003,81.275 160.462498,81.574997 160.8375,82.175 C161.212502,82.775003 161.4,83.5999948 161.4,84.65 C161.4,86.5000093 160.925005,88.0499937 159.975,89.3 C157.624988,92.3500152 154.712517,94.7499912 151.2375,96.5 C147.762483,98.2500088 143.850022,99.125 139.5,99.125 C136.099983,99.125 133.150012,98.6125051 130.65,97.5875 C128.149987,96.5624949 126.237507,95.1625089 124.9125,93.3875 C123.587493,91.6124911 122.925,89.625011 122.925,87.425 C122.925,84.1249835 124.249987,81.2000127 126.9,78.65 C129.550013,76.0999872 133.349975,73.6500118 138.3,71.3 L126,71.6 C124.899994,71.6500003 124.062503,71.2625041 123.4875,70.4375 C122.912497,69.6124959 122.625,68.6250057 122.625,67.475 C122.625,66.274994 122.912497,65.2125046 123.4875,64.2875 C124.062503,63.3624954 124.849995,62.9 125.85,62.9 C128.150011,62.9 131.224981,63.0749983 135.075,63.425 C135.875004,63.4750003 137.337489,63.5749993 139.4625,63.725 C141.587511,63.8750007 143.374993,63.95 144.825,63.95 C145.325002,63.95 146.274993,63.750002 147.675,63.35 C147.925001,63.2999998 148.412496,63.175001 149.1375,62.975 C149.862504,62.774999 150.474998,62.675 150.975,62.675 C151.775004,62.675 152.437497,63.0249965 152.9625,63.725 C153.487503,64.4250035 153.75,65.4999928 153.75,66.95 C153.75,68.550008 153.375004,69.7999955 152.625,70.7 C151.874996,71.6000045 150.700008,72.3999965 149.1,73.1 C144.549977,75.0500098 140.775015,77.1374889 137.775,79.3625 C134.774985,81.5875111 133.275,83.799989 133.275,86 C133.275,87.400007 133.924993,88.5499955 135.225,89.45 C136.525006,90.3500045 138.449987,90.8 141,90.8 C143.800014,90.8 146.637486,90.100007 149.5125,88.7 C152.387514,87.299993 154.974988,85.1750143 157.275,82.325 C157.875003,81.6249965 158.549996,81.275 159.3,81.275 Z M182.1,83.525 C182.750003,83.525 183.262498,83.824997 183.6375,84.425 C184.012502,85.025003 184.2,85.8499948 184.2,86.9 C184.2,88.700009 183.775004,90.2499935 182.925,91.55 C181.524993,93.7000107 179.687511,95.374994 177.4125,96.575 C175.137489,97.775006 172.425016,98.375 169.275,98.375 C164.474976,98.375 160.750013,96.9375144 158.1,94.0625 C155.449987,91.1874856 154.125,87.3000245 154.125,82.4 C154.125,78.9499828 154.849993,75.7375149 156.3,72.7625 C157.750007,69.7874851 159.762487,67.4250088 162.3375,65.675 C164.912513,63.9249913 167.824984,63.05 171.075,63.05 C173.975014,63.05 176.299991,63.9124914 178.05,65.6375 C179.800009,67.3625086 180.675,69.6999852 180.675,72.65 C180.675,76.1000173 179.437512,79.0624876 176.9625,81.5375 C174.487488,84.0125124 170.27503,85.9749927 164.325,87.425 C165.525006,89.7250115 167.549986,90.875 170.4,90.875 C172.45001,90.875 174.137493,90.4000047 175.4625,89.45 C176.787507,88.4999952 178.324991,86.9000113 180.075,84.65 C180.675003,83.8999963 181.349996,83.525 182.1,83.525 Z M169.8,70.4 C167.949991,70.4 166.387506,71.4749893 165.1125,73.625 C163.837494,75.7750108 163.2,78.3749848 163.2,81.425 L163.2,81.575 C166.150015,80.8749965 168.474991,79.825007 170.175,78.425 C171.875008,77.024993 172.725,75.4000093 172.725,73.55 C172.725,72.5999953 172.462503,71.8375029 171.9375,71.2625 C171.412497,70.6874971 170.7,70.4 169.8,70.4 Z" id="Glaze"></path>
            </g>
            <rect id="Rectangle" x="34" y="69" width="10" height="12" rx="3"></rect>
        </g>
    </g>
</svg>