<?xml version="1.0" encoding="UTF-8"?>
<svg width="355px" height="144px" viewBox="0 0 355 144" version="1.1" xmlns="http://www.w3.org/2000/svg" xmlns:xlink="http://www.w3.org/1999/xlink">
    <!-- Generator: Sketch 54.1 (76490) - https://sketchapp.com -->
    <title>Qck-Purp</title>
    <desc>Created with Sketch.</desc>
    <g id="Page-1" stroke="none" stroke-width="1" fill="none" fill-rule="evenodd">
        <g id="Qck-Purp" transform="translate(0.000000, -24.000000)" fill="#7D00FF">
            <path d="M182.05,148.1 C177.949979,148.1 173.625023,147.275008 169.075,145.625 C164.524977,143.974992 160.25002,141.525016 156.25,138.275 C152.24998,135.024984 149.000012,130.950024 146.5,126.05 C143.999987,121.149975 142.75,115.450032 142.75,108.95 C142.75,102.549968 143.999987,96.9250242 146.5,92.075 C149.000012,87.2249757 152.22498,83.200016 156.175,80 C160.12502,76.799984 164.374977,74.3750083 168.925,72.725 C173.475023,71.0749918 177.74998,70.25 181.75,70.25 C185.550019,70.25 188.849986,70.649996 191.65,71.45 C194.450014,72.250004 196.749991,73.1249952 198.55,74.075 C200.350009,75.0250047 201.649996,75.7499975 202.45,76.25 C204.45001,77.450006 206.324991,78.8249922 208.075,80.375 C209.825009,81.9250078 210.7,83.999987 210.7,86.6 C210.7,87.9000065 210.450002,89.2249933 209.95,90.575 C209.449997,91.9250067 208.650005,93.4499915 207.55,95.15 C203.949982,100.650028 200.350018,103.4 196.75,103.4 C195.149992,103.4 193.750006,103.125003 192.55,102.575 C191.349994,102.024997 190.250005,101.400003 189.25,100.7 C188.249995,99.9999965 187.175006,99.3750027 186.025,98.825 C184.874994,98.2749972 183.450008,98 181.75,98 C179.74999,98 177.900008,98.499995 176.2,99.5 C174.499991,100.500005 173.150005,101.824992 172.15,103.475 C171.149995,105.125008 170.65,106.999989 170.65,109.1 C170.65,111.20001 171.149995,113.099992 172.15,114.8 C173.150005,116.500009 174.474992,117.849995 176.125,118.85 C177.775008,119.850005 179.54999,120.35 181.45,120.35 C182.850007,120.35 184.024995,120.200001 184.975,119.9 C185.925005,119.599998 186.649997,119.275002 187.15,118.925 C187.650002,118.574998 187.949999,118.4 188.05,118.4 C189.450007,117.599996 190.774994,116.850004 192.025,116.15 C193.275006,115.449996 194.549993,115.1 195.85,115.1 C197.550008,115.1 199.299991,115.724994 201.1,116.975 C202.900009,118.225006 204.899989,120.249986 207.1,123.05 C209.20001,125.650013 210.374999,128.074989 210.625,130.325 C210.875001,132.575011 210.300007,134.67499 208.9,136.625 C207.499993,138.57501 205.350014,140.449991 202.45,142.25 C202.149998,142.450001 201.125009,143.024995 199.375,143.975 C197.624991,144.925005 195.300014,145.849996 192.4,146.75 C189.499985,147.650004 186.05002,148.1 182.05,148.1 Z M283.9,122.6 C287.600018,125.900016 289.574999,129.024985 289.825,131.975 C290.075001,134.925015 288.400018,138.299981 284.8,142.1 C282.099986,144.900014 279.77501,146.724996 277.825,147.575 C275.87499,148.425004 273.950009,148.425004 272.05,147.575 C270.14999,146.724996 267.900013,145.150012 265.3,142.85 L246.85,125.6 L246.85,133.85 C246.85,136.050011 246.650002,138.19999 246.25,140.3 C245.849998,142.400011 244.725009,144.099993 242.875,145.4 C241.024991,146.700007 237.800023,147.35 233.2,147.35 C228.699977,147.35 225.500009,146.675007 223.6,145.325 C221.69999,143.974993 220.575002,142.250011 220.225,140.15 C219.874998,138.04999 219.7,135.900011 219.7,133.7 L219.7,50.15 C219.7,47.8499885 219.899998,45.6750102 220.3,43.625 C220.700002,41.5749898 221.84999,39.8750068 223.75,38.525 C225.650009,37.1749932 228.849977,36.5 233.35,36.5 C237.850022,36.5 241.024991,37.1749932 242.875,38.525 C244.725009,39.8750068 245.849998,41.5999895 246.25,43.7 C246.650002,45.8000105 246.85,47.9999885 246.85,50.3 L246.85,91.7 L259.6,79.25 C262.000012,76.9499885 264.249989,75.3750042 266.35,74.525 C268.45001,73.6749957 270.52499,73.6249963 272.575,74.375 C274.62501,75.1250037 276.799988,76.7499875 279.1,79.25 C283.000019,83.450021 284.875001,86.849987 284.725,89.45 C284.574999,92.050013 282.700018,95.149982 279.1,98.75 L266.95,109.4 L283.9,122.6 Z M322.254376,77.3133288 C322.990036,76.5907052 323.930239,75.7862665 325.075,74.9 C326.625008,73.699994 328.474989,72.6500045 330.625,71.75 C332.775011,70.8499955 335.199986,70.4 337.9,70.4 C338.800004,70.4 339.924993,70.4749992 341.275,70.625 C342.625007,70.7750008 344.074992,71.049998 345.625,71.45 C347.175008,71.850002 348.624993,72.449996 349.975,73.25 C351.325007,74.050004 352.424996,75.0999935 353.275,76.4 C354.125004,77.7000065 354.55,79.2999905 354.55,81.2 C354.55,86.200025 353.475011,90.4499825 351.325,93.95 C349.174989,97.4500175 346.350017,99.2 342.85,99.2 C340.94999,99.2 339.600004,99.0750012 338.8,98.825 C337.999996,98.5749987 337.425002,98.3250012 337.075,98.075 C336.724998,97.8249988 336.325002,97.5750013 335.875,97.325 C335.424998,97.0749988 334.600006,96.95 333.4,96.95 C331.899992,96.95 330.525006,97.1249983 329.275,97.475 C328.024994,97.8250017 326.925005,98.3499965 325.975,99.05 C325.024995,99.7500035 324.300002,100.574995 323.8,101.525 C323.299997,102.475005 323.05,103.499994 323.05,104.6 L323.05,133.85 C323.05,136.050011 322.850002,138.19999 322.45,140.3 C322.049998,142.400011 320.900009,144.099993 319,145.4 C317.09999,146.700007 313.850023,147.35 309.25,147.35 C304.749977,147.35 301.550009,146.675007 299.65,145.325 C297.74999,143.974993 296.625002,142.225011 296.275,140.075 C295.924998,137.924989 295.75,135.750011 295.75,133.55 L295.75,84.65 C295.75,82.3499885 295.949998,80.1750102 296.35,78.125 C296.750002,76.0749898 297.89999,74.4000065 299.8,73.1 C301.700009,71.7999935 304.899977,71.15 309.4,71.15 C313.800022,71.15 316.924991,71.749994 318.775,72.95 C320.625009,74.150006 321.749998,75.4749927 322.15,76.925 C322.186453,77.0571422 322.221245,77.1865852 322.254376,77.3133288 L322.254376,77.3133288 Z" id="ckr" fill-rule="nonzero"></path>
            <path d="M141,132.2 C146.733362,135.933352 149.93333,139.633315 150.6,143.3 C151.26667,146.966685 149.533354,151.733304 145.4,157.6 C142.466652,161.733354 139.800012,164.533326 137.4,166 C134.999988,167.466674 132.433347,167.800004 129.7,167 C126.966653,166.199996 123.733352,164.600012 120,162.2 L108.8,155 C103.333306,159.00002 97.333366,162.133322 90.8,164.4 C84.266634,166.666678 77.400036,167.8 70.2,167.8 C60.466618,167.8 51.366709,165.966685 42.9,162.3 C34.433291,158.633315 27.000032,153.533366 20.6,147 C14.199968,140.466634 9.166685,132.900043 5.5,124.3 C1.833315,115.699957 0,106.533382 0,96.8 C0,86.666616 1.766649,77.200044 5.3,68.4 C8.833351,59.599956 13.733302,51.8667 20,45.2 C26.266698,38.5333 33.566625,33.333352 41.9,29.6 C50.233375,25.866648 59.133286,24 68.6,24 C78.333382,24 87.433291,25.833315 95.9,29.5 C104.366709,33.166685 111.799968,38.266634 118.2,44.8 C124.600032,51.333366 129.599982,58.966623 133.2,67.7 C136.800018,76.433377 138.6,85.866616 138.6,96 C138.6,101.33336 138.033339,106.533308 136.9,111.6 C135.766661,116.666692 134.133344,121.53331 132,126.2 L141,132.2 Z M69.2,131.2 C73.733356,131.2 77.99998,130.300009 82,128.5 C86.00002,126.699991 89.499985,124.233349 92.5,121.1 C95.500015,117.966651 97.833325,114.233355 99.5,109.9 C101.166675,105.566645 102,100.933358 102,96 C102,91.066642 101.133342,86.466688 99.4,82.2 C97.666658,77.933312 95.300015,74.166683 92.3,70.9 C89.299985,67.633317 85.833353,65.100009 81.9,63.3 C77.966647,61.499991 73.800022,60.6 69.4,60.6 C64.866644,60.6 60.60002,61.499991 56.6,63.3 C52.59998,65.100009 49.100015,67.633317 46.1,70.9 C43.099985,74.166683 40.766675,77.933312 39.1,82.2 C37.433325,86.466688 36.6,91.066642 36.6,96 C36.6,100.933358 37.466658,105.533312 39.2,109.8 C40.933342,114.066688 43.299985,117.799984 46.3,121 C49.300015,124.200016 52.766647,126.699991 56.7,128.5 C60.633353,130.300009 64.799978,131.2 69.2,131.2 Z" id="Q" fill-rule="nonzero"></path>
            <circle id="Oval-Copy" cx="87" cy="103" r="15"></circle>
        </g>
    </g>
</svg>